<?xml version="1.0"?>
<svg width="640" height="479.99999999999994" xmlns="http://www.w3.org/2000/svg" xmlns:svg="http://www.w3.org/2000/svg">
 <!-- Created with SVG-edit - https://github.com/SVG-Edit/svgedit-->
 <g class="layer">
  <title>Layer 1</title>
  <polygon fill="#025589" id="svg_11" points="500,1 566,92 348,92" stroke="#000000" stroke-width="2" transform="matrix(1 0 0 1 0 0)"/>
  <polygon fill="#4bbcbc" id="svg_12" points="324,108 422,108 422,192 180,192" stroke="#000000" stroke-width="2" transform="matrix(1 0 0 1 0 0)"/>
  <polygon fill="#a09292" id="svg_13" points="438,108 572,108 526,192 438,192" stroke="#000000" stroke-width="2" transform="matrix(1 0 0 1 0 0)"/>
  <polygon fill="#a09292" id="svg_14" points="173,208 332,208 332,292 233,292" stroke="#000000" stroke-width="2" transform="matrix(1 0 0 1 0 0)"/>
  <polygon fill="#025589" id="svg_15" points="348,208 516,208 468,292 348,292" stroke="#000000" stroke-width="2" transform="matrix(1 0 0 1 0 0)"/>
  <polygon fill="#53c1c1" id="svg_16" points="244,308 462,308 414,392 306,392" stroke="#000000" stroke-width="2" transform="matrix(1 0 0 1 0 0)"/>
  <polygon fill="#025589" id="svg_17" points="406,408 314,408 368,480" stroke="#000000" stroke-width="2"/>
 </g>
</svg>